<svg width="38" height="34" viewBox="0 0 38 34" fill="none" xmlns="http://www.w3.org/2000/svg">
<path d="M37.1844 15.7688C37.1818 13.5866 36.2792 11.4945 34.6745 9.95139C33.0697 8.40832 30.894 7.54033 28.6246 7.53786H22.0463C21.963 7.53739 13.6426 7.41471 5.72069 1.02557C5.24077 0.638039 4.65579 0.390279 4.03448 0.31141C3.41318 0.232541 2.78138 0.32584 2.21331 0.580344C1.64525 0.834847 1.16454 1.23998 0.82766 1.74813C0.490784 2.25628 0.311745 2.84634 0.311583 3.44896V28.0887C0.307791 28.6917 0.484951 29.283 0.821824 29.7917C1.1587 30.3003 1.64098 30.7047 2.21086 30.9564C2.64918 31.1543 3.12732 31.2573 3.61153 31.2581C4.38411 31.2566 5.13122 30.9923 5.72069 30.5121C9.47144 27.4736 13.9476 25.3775 18.748 24.4117V28.9156C18.7459 29.5039 18.9153 30.081 19.2369 30.5815C19.5585 31.082 20.0196 31.4858 20.5678 31.7471L23.6391 33.2239C24.08 33.4359 24.5649 33.55 25.0578 33.5577C25.5508 33.5654 26.0392 33.4665 26.4871 33.2684C26.935 33.0703 27.3309 32.778 27.6456 32.4131C27.9603 32.0481 28.1857 31.6199 28.3053 31.16L30.2041 23.857C32.1646 23.5007 33.9345 22.4979 35.2087 21.0215C36.4829 19.545 37.1816 17.6875 37.1844 15.7688ZM4.26208 26.7646V4.77304C8.49519 7.94666 13.4661 10.0849 18.748 11.0041V20.5336C13.4661 21.4528 8.49518 23.591 4.26208 26.7646ZM24.6715 29.4729L22.6986 28.5243V23.9998H26.0946L24.6715 29.4729ZM28.6246 20.2009H22.6986V11.3368H28.6246C29.847 11.3368 31.0194 11.8037 31.8838 12.6349C32.7481 13.4661 33.2337 14.5934 33.2337 15.7688C33.2337 16.9443 32.7481 18.0716 31.8838 18.9028C31.0194 19.734 29.847 20.2009 28.6246 20.2009Z" fill="white"/>
</svg>
