<svg width="19" height="21" viewBox="0 0 19 21" fill="none" xmlns="http://www.w3.org/2000/svg">
<path d="M15.7344 0C16.1632 0 16.5879 0.0746874 16.9841 0.219798C17.3803 0.364908 17.7403 0.5776 18.0435 0.845729C18.3468 1.11386 18.5873 1.43217 18.7514 1.7825C18.9155 2.13283 19 2.50831 19 2.8875V18.1125C19 18.4917 18.9155 18.8672 18.7514 19.2175C18.5873 19.5678 18.3468 19.8861 18.0435 20.1543C17.7403 20.4224 17.3803 20.6351 16.9841 20.7802C16.5879 20.9253 16.1632 21 15.7344 21H3.26563C2.83668 21 2.41193 20.9253 2.01565 20.7801C1.61937 20.6349 1.25932 20.4221 0.95606 20.1539C0.652803 19.8857 0.412283 19.5672 0.24824 19.2168C0.0841967 18.8663 -0.000155765 18.4907 2.1593e-07 18.1115V2.8875C2.1593e-07 1.5645 1.00463 0.4515 2.375 0.10815V1.8375C2.014 2.0769 1.78125 2.457 1.78125 2.8875V18.1104C1.78125 18.8349 2.44625 19.4229 3.26563 19.4229H15.7344C16.5537 19.4229 17.2188 18.8349 17.2188 18.1104V2.8875C17.2188 2.163 16.5537 1.575 15.7344 1.575H13.0625V0H15.7344ZM11.875 0V8.54595C11.875 9.3303 10.925 9.6243 10.3431 9.34815L10.2458 9.29355L7.72112 7.9443L5.2535 9.25785C4.65975 9.63585 3.67413 9.40485 3.57081 8.67195L3.5625 8.547V0H11.875ZM10.0938 1.575H5.34375V7.37415L7.21169 6.3777C7.36051 6.30774 7.52557 6.26908 7.69404 6.26471C7.86252 6.26034 8.02986 6.29038 8.18306 6.3525L10.0949 7.3752V1.575H10.0938Z" fill="#B3BBD0"/>
</svg>
