<svg width="22" height="20" viewBox="0 0 22 20" fill="none" xmlns="http://www.w3.org/2000/svg">
<path d="M9.67733 8.97937C9.67733 8.42708 10.1539 7.97937 10.7418 7.97937C11.3298 7.97937 11.8064 8.42708 11.8064 8.97937V14.9794C11.8064 15.5317 11.3298 15.9794 10.7418 15.9794C10.1539 15.9794 9.67733 15.5317 9.67733 14.9794V8.97937Z" fill="#B3BBD0"/>
<path d="M10.7418 4.05115C10.1539 4.05115 9.67733 4.49886 9.67733 5.05115C9.67733 5.60343 10.1539 6.05115 10.7418 6.05115C11.3298 6.05115 11.8064 5.60343 11.8064 5.05115C11.8064 4.49886 11.3298 4.05115 10.7418 4.05115Z" fill="#B3BBD0"/>
<path fill-rule="evenodd" clip-rule="evenodd" d="M10.7418 0C4.86268 0 0.0966797 4.47715 0.0966797 10C0.0966797 15.5228 4.86268 20 10.7418 20C16.621 20 21.387 15.5228 21.387 10C21.387 4.47715 16.621 0 10.7418 0ZM2.22571 10C2.22571 14.4183 6.03851 18 10.7418 18C15.4452 18 19.258 14.4183 19.258 10C19.258 5.58172 15.4452 2 10.7418 2C6.03851 2 2.22571 5.58172 2.22571 10Z" fill="#B3BBD0"/>
</svg>
