<svg width="25" height="24" viewBox="0 0 25 24" fill="none" xmlns="http://www.w3.org/2000/svg">
<path fill-rule="evenodd" clip-rule="evenodd" d="M17.5 5.76025H11.5C11.2239 5.76025 11 5.97516 11 6.24025V10.0803C11 10.3454 11.2239 10.5603 11.5 10.5603H17.5C17.7761 10.5603 18 10.3454 18 10.0803V6.24025C18 5.97516 17.7761 5.76025 17.5 5.76025ZM17 9.60025H12V6.72025H17V9.60025Z" fill="#CCD2E3"/>
<path d="M12 9.60025H11.75C11.75 9.73833 11.8619 9.85025 12 9.85025V9.60025ZM17 9.60025V9.85025C17.1381 9.85025 17.25 9.73833 17.25 9.60025H17ZM12 6.72025V6.47025C11.8619 6.47025 11.75 6.58218 11.75 6.72025H12ZM17 6.72025H17.25C17.25 6.58218 17.1381 6.47025 17 6.47025V6.72025ZM11.5 6.01025H17.5V5.51025H11.5V6.01025ZM11.25 6.24025C11.25 6.12275 11.3522 6.01025 11.5 6.01025V5.51025C11.0955 5.51025 10.75 5.82757 10.75 6.24025H11.25ZM11.25 10.0803V6.24025H10.75V10.0803H11.25ZM11.5 10.3103C11.3522 10.3103 11.25 10.1978 11.25 10.0803H10.75C10.75 10.4929 11.0955 10.8103 11.5 10.8103V10.3103ZM17.5 10.3103H11.5V10.8103H17.5V10.3103ZM17.75 10.0803C17.75 10.1978 17.6478 10.3103 17.5 10.3103V10.8103C17.9045 10.8103 18.25 10.4929 18.25 10.0803H17.75ZM17.75 6.24025V10.0803H18.25V6.24025H17.75ZM17.5 6.01025C17.6478 6.01025 17.75 6.12275 17.75 6.24025H18.25C18.25 5.82757 17.9045 5.51025 17.5 5.51025V6.01025ZM12 9.85025H17V9.35025H12V9.85025ZM11.75 6.72025V9.60025H12.25V6.72025H11.75ZM17 6.47025H12V6.97025H17V6.47025ZM17.25 9.60025V6.72025H16.75V9.60025H17.25Z" fill="#CCD2E3"/>
<path fill-rule="evenodd" clip-rule="evenodd" d="M19.5 1.92004H5.5C4.67157 1.92004 4 2.56475 4 3.36004V18.72C4 20.5757 5.567 22.08 7.5 22.08H17.5C19.433 22.08 21 20.5757 21 18.72V3.36004C21 2.56475 20.3284 1.92004 19.5 1.92004ZM7.99988 2.88012H5.49988C5.22374 2.88012 4.99988 3.09503 4.99988 3.36012V18.7201C4.99988 20.0456 6.11917 21.1201 7.49988 21.1201H7.99988V2.88012ZM9 2.88012V21.1201H17.5C18.8807 21.1201 20 20.0456 20 18.7201V3.36012C20 3.09503 19.7761 2.88012 19.5 2.88012H9Z" fill="#CCD2E3"/>
<path d="M7.99988 2.88012H8.24988C8.24988 2.74205 8.13795 2.63012 7.99988 2.63012V2.88012ZM7.99988 21.1201V21.3701C8.13795 21.3701 8.24988 21.2582 8.24988 21.1201H7.99988ZM9 21.1201H8.75C8.75 21.2582 8.86193 21.3701 9 21.3701V21.1201ZM9 2.88012V2.63012C8.86193 2.63012 8.75 2.74205 8.75 2.88012H9ZM5.5 2.17004H19.5V1.67004H5.5V2.17004ZM4.25 3.36004C4.25 2.71235 4.79993 2.17004 5.5 2.17004V1.67004C4.54322 1.67004 3.75 2.41716 3.75 3.36004H4.25ZM4.25 18.72V3.36004H3.75V18.72H4.25ZM7.5 21.83C5.69536 21.83 4.25 20.4281 4.25 18.72H3.75C3.75 20.7233 5.43865 22.33 7.5 22.33V21.83ZM17.5 21.83H7.5V22.33H17.5V21.83ZM20.75 18.72C20.75 20.4281 19.3046 21.83 17.5 21.83V22.33C19.5614 22.33 21.25 20.7233 21.25 18.72H20.75ZM20.75 3.36004V18.72H21.25V3.36004H20.75ZM19.5 2.17004C20.2001 2.17004 20.75 2.71235 20.75 3.36004H21.25C21.25 2.41716 20.4568 1.67004 19.5 1.67004V2.17004ZM5.49988 3.13012H7.99988V2.63012H5.49988V3.13012ZM5.24988 3.36012C5.24988 3.24262 5.35209 3.13012 5.49988 3.13012V2.63012C5.09538 2.63012 4.74988 2.94743 4.74988 3.36012H5.24988ZM5.24988 18.7201V3.36012H4.74988V18.7201H5.24988ZM7.49988 20.8701C6.24752 20.8701 5.24988 19.898 5.24988 18.7201H4.74988C4.74988 20.1932 5.99081 21.3701 7.49988 21.3701V20.8701ZM7.99988 20.8701H7.49988V21.3701H7.99988V20.8701ZM7.74988 2.88012V21.1201H8.24988V2.88012H7.74988ZM9.25 21.1201V2.88012H8.75V21.1201H9.25ZM17.5 20.8701H9V21.3701H17.5V20.8701ZM19.75 18.7201C19.75 19.898 18.7524 20.8701 17.5 20.8701V21.3701C19.0091 21.3701 20.25 20.1932 20.25 18.7201H19.75ZM19.75 3.36012V18.7201H20.25V3.36012H19.75ZM19.5 3.13012C19.6478 3.13012 19.75 3.24262 19.75 3.36012H20.25C20.25 2.94743 19.9045 2.63012 19.5 2.63012V3.13012ZM9 3.13012H19.5V2.63012H9V3.13012Z" fill="#CCD2E3"/>
</svg>
