<svg width="25" height="25" viewBox="0 0 25 25" fill="none" xmlns="http://www.w3.org/2000/svg">
<path d="M7.08618 17.4651L11.4992 17.4501L21.1312 7.91005C21.5092 7.53205 21.7172 7.03005 21.7172 6.49605C21.7172 5.96205 21.5092 5.46005 21.1312 5.08205L19.5452 3.49605C18.7892 2.74005 17.4702 2.74405 16.7202 3.49305L7.08618 13.0351V17.4651ZM18.1312 4.91005L19.7202 6.49305L18.1232 8.07505L16.5372 6.49005L18.1312 4.91005ZM9.08618 13.8691L15.1162 7.89605L16.7022 9.48205L10.6732 15.4531L9.08618 15.4581V13.8691Z" fill="white"/>
<path d="M5.08618 21.4521H19.0862C20.1892 21.4521 21.0862 20.5551 21.0862 19.4521V10.7841L19.0862 12.7841V19.4521H8.24418C8.21818 19.4521 8.19118 19.4621 8.16518 19.4621C8.13218 19.4621 8.09918 19.4531 8.06518 19.4521H5.08618V5.45215H11.9332L13.9332 3.45215H5.08618C3.98318 3.45215 3.08618 4.34915 3.08618 5.45215V19.4521C3.08618 20.5551 3.98318 21.4521 5.08618 21.4521Z" fill="white"/>
</svg>
