<svg width="21" height="16" viewBox="0 0 21 16" fill="none" xmlns="http://www.w3.org/2000/svg">
<path d="M19.379 5.05685L14.0477 4.42885L11.6679 0.517855C11.5548 0.36032 11.3927 0.22958 11.1976 0.138704C11.0026 0.0478284 10.7815 0 10.5565 0C10.3314 0 10.1104 0.0478284 9.91532 0.138704C9.72027 0.22958 9.5581 0.36032 9.44502 0.517855L7.06526 4.42985L1.73398 5.05685C1.50568 5.08337 1.29111 5.16112 1.11458 5.2813C0.938042 5.40148 0.806598 5.55929 0.735132 5.73686C0.663665 5.91442 0.655033 6.10464 0.710212 6.28598C0.765392 6.46731 0.882178 6.6325 1.04734 6.76285L4.9041 9.80785L3.99394 14.1079C3.95502 14.2918 3.98043 14.4808 4.06727 14.6536C4.15411 14.8265 4.29894 14.9762 4.48536 15.0858C4.67179 15.1955 4.89238 15.2607 5.1222 15.2741C5.35202 15.2876 5.58191 15.2487 5.78585 15.1619L10.5565 13.1309L15.3246 15.1599C15.5286 15.2467 15.7585 15.2856 15.9883 15.2721C16.2181 15.2587 16.4387 15.1935 16.6251 15.0838C16.8115 14.9742 16.9564 14.8245 17.0432 14.6516C17.1301 14.4788 17.1555 14.2898 17.1165 14.1059L16.2064 9.80585L20.0656 6.76285C20.2304 6.6326 20.3469 6.46763 20.402 6.2866C20.457 6.10556 20.4485 5.91565 20.3774 5.73832C20.3062 5.56099 20.1753 5.40331 19.9993 5.28306C19.8233 5.16282 19.6093 5.08482 19.3814 5.05785L19.379 5.05685Z" fill="#F2C94C"/>
</svg>
