<svg width="27" height="19" viewBox="0 0 27 19" fill="none" xmlns="http://www.w3.org/2000/svg">
<path d="M25.4767 3.66106C25.3417 3.1392 25.0668 2.66104 24.6797 2.2749C24.2926 1.88875 23.8071 1.60829 23.2722 1.46184C21.3178 1 13.5 1 13.5 1C13.5 1 5.68222 1 3.72778 1.50582C3.19286 1.65227 2.70735 1.93274 2.32029 2.31888C1.93323 2.70503 1.65833 3.18318 1.52335 3.70505C1.16566 5.62448 0.990691 7.57162 1.00065 9.52199C0.987899 11.487 1.16288 13.449 1.52335 15.3829C1.67216 15.8886 1.95322 16.3485 2.33938 16.7184C2.72554 17.0882 3.20374 17.3554 3.72778 17.4942C5.68222 18 13.5 18 13.5 18C13.5 18 21.3178 18 23.2722 17.4942C23.8071 17.3477 24.2926 17.0673 24.6797 16.6811C25.0668 16.295 25.3417 15.8168 25.4767 15.295C25.8316 13.39 26.0065 11.4577 25.9994 9.52199C26.0121 7.55694 25.8371 5.59495 25.4767 3.66106V3.66106Z" stroke="#062F4F" stroke-width="2" stroke-linecap="round" stroke-linejoin="round"/>
<path d="M10.9434 13.1177L17.4771 9.522L10.9434 5.92627V13.1177Z" stroke="#062F4F" stroke-width="2" stroke-linecap="round" stroke-linejoin="round"/>
</svg>
