<svg width="38" height="35" viewBox="0 0 38 35" fill="none" xmlns="http://www.w3.org/2000/svg">
<path d="M37.5123 16.2381C37.5097 14.0558 36.607 11.9637 35.0023 10.4206C33.3976 8.87755 31.2219 8.00957 28.9525 8.0071H22.3742C22.2909 8.00662 13.9705 7.88395 6.04857 1.49481C5.56865 1.10728 4.98367 0.859517 4.36237 0.780648C3.74106 0.701779 3.10926 0.795078 2.54119 1.04958C1.97313 1.30409 1.49242 1.70922 1.15554 2.21737C0.818665 2.72552 0.639626 3.31558 0.639464 3.9182V28.558C0.635672 29.161 0.812832 29.7522 1.1497 30.2609C1.48658 30.7695 1.96886 31.174 2.53874 31.4257C2.97706 31.6235 3.4552 31.7265 3.93942 31.7274C4.71199 31.7258 5.4591 31.4616 6.04857 30.9813C9.79932 27.9429 14.2755 25.8468 19.0759 24.8809V29.3848C19.0738 29.9732 19.2431 30.5503 19.5648 31.0507C19.8864 31.5512 20.3475 31.955 20.8956 32.2163L23.9669 33.6931C24.4079 33.9051 24.8928 34.0192 25.3857 34.0269C25.8786 34.0346 26.3671 33.9358 26.815 33.7376C27.2629 33.5395 27.6588 33.2472 27.9735 32.8823C28.2882 32.5174 28.5136 32.0891 28.6332 31.6292L30.532 24.3263C32.4925 23.9699 34.2624 22.9672 35.5366 21.4907C36.8108 20.0143 37.5095 18.1567 37.5123 16.2381ZM4.58996 27.2339V5.24228C8.82308 8.4159 13.794 10.5541 19.0759 11.4733V21.0029C13.794 21.922 8.82306 24.0602 4.58996 27.2339ZM24.9994 29.9422L23.0265 28.9936V24.4691H26.4224L24.9994 29.9422ZM28.9525 20.6701H23.0265V11.806H28.9525C30.1749 11.806 31.3473 12.273 32.2116 13.1041C33.076 13.9353 33.5616 15.0626 33.5616 16.2381C33.5616 17.4135 33.076 18.5408 32.2116 19.372C31.3473 20.2032 30.1749 20.6701 28.9525 20.6701Z" fill="#017EFA"/>
</svg>
