<svg width="25" height="26" viewBox="0 0 25 26" fill="none" xmlns="http://www.w3.org/2000/svg">
<path fill-rule="evenodd" clip-rule="evenodd" d="M3.36751 4.23989C2.48883 5.11857 2.48883 6.53278 2.48883 9.36121V16.257C2.48883 19.0854 2.48883 20.4996 3.36751 21.3783C4.24619 22.257 5.6604 22.257 8.48883 22.257H16.7944C19.6228 22.257 21.037 22.257 21.9157 21.3783C22.7944 20.4996 22.7944 19.0854 22.7944 16.257V9.36121C22.7944 6.53278 22.7944 5.11857 21.9157 4.23989C21.037 3.36121 19.6228 3.36121 16.7944 3.36121H8.48883C5.6604 3.36121 4.24619 3.36121 3.36751 4.23989ZM16.7027 8.6598C17.255 8.6598 17.7027 9.10751 17.7027 9.6598V18.0579C17.7027 18.6102 17.255 19.0579 16.7027 19.0579C16.1504 19.0579 15.7027 18.6102 15.7027 18.0579V9.6598C15.7027 9.10751 16.1504 8.6598 16.7027 8.6598ZM9.58049 11.7593C9.58049 11.207 9.13277 10.7593 8.58049 10.7593C8.0282 10.7593 7.58049 11.207 7.58049 11.7593V18.0579C7.58049 18.6102 8.0282 19.0579 8.58049 19.0579C9.13277 19.0579 9.58049 18.6102 9.58049 18.0579L9.58049 11.7593ZM13.6416 13.8589C13.6416 13.3066 13.1939 12.8589 12.6416 12.8589C12.0893 12.8589 11.6416 13.3066 11.6416 13.8589V18.0579C11.6416 18.6102 12.0893 19.0579 12.6416 19.0579C13.1939 19.0579 13.6416 18.6102 13.6416 18.0579V13.8589Z" fill="white"/>
</svg>
