<svg width="24" height="26" viewBox="0 0 24 26" fill="none" xmlns="http://www.w3.org/2000/svg">
<path d="M4.66667 1L1 5.8V22.6C1 23.2365 1.25754 23.847 1.71596 24.2971C2.17438 24.7471 2.79614 25 3.44444 25H20.5556C21.2039 25 21.8256 24.7471 22.284 24.2971C22.7425 23.847 23 23.2365 23 22.6V5.8L19.3333 1H4.66667Z" stroke="white" stroke-width="2" stroke-linecap="round" stroke-linejoin="round"/>
<path d="M1 5.79999H23" stroke="white" stroke-width="2" stroke-linecap="round" stroke-linejoin="round"/>
<path d="M16.8891 10.6C16.8891 11.873 16.374 13.0939 15.4572 13.9941C14.5403 14.8943 13.2968 15.4 12.0002 15.4C10.7036 15.4 9.46009 14.8943 8.54325 13.9941C7.62641 13.0939 7.11133 11.873 7.11133 10.6" stroke="white" stroke-width="2" stroke-linecap="round" stroke-linejoin="round"/>
</svg>
