<svg width="25" height="25" viewBox="0 0 25 25" fill="none" xmlns="http://www.w3.org/2000/svg">
<path d="M22.9166 13.146V15.2918C22.9166 15.8752 22.4374 16.3543 21.8437 16.3543H19.8332C18.7082 16.3543 17.677 15.5314 17.5832 14.4064C17.5207 13.7502 17.7707 13.1356 18.2082 12.7085C18.5937 12.3127 19.1249 12.0835 19.7082 12.0835H21.8437C22.4374 12.0835 22.9166 12.5627 22.9166 13.146Z" fill="#B3BBD0"/>
<path d="M16.021 14.5417C15.9272 13.4479 16.3231 12.375 17.1147 11.5938C17.7814 10.9167 18.7085 10.5208 19.7085 10.5208H20.3022C20.5939 10.5208 20.8335 10.2812 20.7918 9.98958C20.5106 7.96875 18.7606 6.40625 16.6668 6.40625H6.25016C3.94808 6.40625 2.0835 8.27083 2.0835 10.5729V17.8646C2.0835 20.1667 3.94808 22.0312 6.25016 22.0312H16.6668C18.771 22.0312 20.5106 20.4687 20.7918 18.4479C20.8335 18.1562 20.5939 17.9167 20.3022 17.9167H19.8335C17.8543 17.9167 16.1877 16.4375 16.021 14.5417ZM13.5418 12.3958H7.29183C6.86475 12.3958 6.51058 12.0521 6.51058 11.6146C6.51058 11.1771 6.86475 10.8333 7.29183 10.8333H13.5418C13.9689 10.8333 14.3231 11.1875 14.3231 11.6146C14.3231 12.0417 13.9689 12.3958 13.5418 12.3958Z" fill="#B3BBD0"/>
<path d="M14.8021 4.14583C15.0729 4.42708 14.8333 4.84375 14.4375 4.84375H6.28127C5.14585 4.84375 4.08335 5.17708 3.19793 5.75C2.79168 6.01042 2.2396 5.72917 2.43752 5.28125C3.02085 3.91667 4.38543 2.96875 5.95835 2.96875H11.8125C13.0208 2.96875 14.0938 3.39583 14.8021 4.14583Z" fill="#B3BBD0"/>
</svg>
