<svg width="25" height="26" viewBox="0 0 25 26" fill="none" xmlns="http://www.w3.org/2000/svg">
<path d="M3.50848 15.2882C3.00947 14.3607 2.75997 13.8969 2.75997 13.3931C2.75997 12.8892 3.00947 12.4255 3.50848 11.4979L4.95696 8.80562L6.4316 6.25937C6.98535 5.30321 7.26222 4.82513 7.71605 4.55851C8.16988 4.29189 8.72227 4.28278 9.82706 4.26456L12.6417 4.21814L15.4562 4.26456C16.561 4.28278 17.1134 4.29189 17.5673 4.55851C18.0211 4.82513 18.298 5.30321 18.8517 6.25937L20.3263 8.80562L21.7748 11.4979C22.2738 12.4255 22.5233 12.8892 22.5233 13.3931C22.5233 13.8969 22.2738 14.3607 21.7748 15.2882L20.3263 17.9806L18.8517 20.5268C18.298 21.483 18.0211 21.9611 17.5673 22.2277C17.1134 22.4943 16.561 22.5034 15.4562 22.5216L12.6417 22.568L9.82706 22.5216C8.72228 22.5034 8.16988 22.4943 7.71605 22.2277C7.26222 21.9611 6.98535 21.483 6.4316 20.5268L4.95696 17.9806L3.50848 15.2882Z" stroke="#CCD2E3" stroke-width="2"/>
<ellipse cx="12.6417" cy="13.3931" rx="3.04583" ry="3.1493" stroke="#B3BBD0" stroke-width="2"/>
</svg>
