<svg width="25" height="25" viewBox="0 0 25 25" fill="none" xmlns="http://www.w3.org/2000/svg">
<path d="M17.8494 19.8201H5.84937V7.6001H12.8494V5.6001H5.84937C4.74937 5.6001 3.84937 6.5001 3.84937 7.6001V19.6001C3.84937 20.7001 4.74937 21.6001 5.84937 21.6001H17.8494C18.9494 21.6001 19.8494 20.7001 19.8494 19.6001V12.6001H17.8494V19.8201Z" fill="#7659FF"/>
<path d="M19.8494 2.6001H17.8494V5.6001H14.8494C14.8594 5.6101 14.8494 7.6001 14.8494 7.6001H17.8494V10.5901C17.8594 10.6001 19.8494 10.5901 19.8494 10.5901V7.6001H22.8494V5.6001H19.8494V2.6001ZM7.84937 9.6001H15.8494V11.6001H7.84937V9.6001ZM7.84937 12.6001V14.6001H15.8494V12.6001H12.8494H7.84937ZM7.84937 15.6001H15.8494V17.6001H7.84937V15.6001Z" fill="#7659FF"/>
</svg>
